HIERARCHY
ROOT Hips
{
	OFFSET 0.000000 0.000000 0.000000 
	CHANNELS 6 Xposition Yposition Zposition Yrotation Zrotation Xrotation 
	JOINT Lumbar
	{
		OFFSET 0.000000 0.000000 0.000000 
		CHANNELS 3 Zrotation Xrotation Yrotation
		JOINT Neck
		{
			OFFSET 0.000000 0.445665 0.000000 
			CHANNELS 3 Zrotation Xrotation Yrotation
			End Site
			{
				OFFSET 0.000000 0.227535 0.000000 
			}
		}
		JOINT RightShoulder
		{
			OFFSET 0.019635 0.377685 0.194865 
			CHANNELS 3 Zrotation Xrotation Yrotation
			JOINT RightElbow
			{
				OFFSET 0.000000 -0.243375 0.000000 
				CHANNELS 2 Zrotation Yrotation
				JOINT RightWrist
				{
					OFFSET 0.000000 -0.264825 0.000000 
					CHANNELS 2 Zrotation Xrotation
					End Site
					{
						OFFSET 0.006600 -0.176220 0.000990 
					}
				}
			}
		}
		JOINT LeftShoulder
		{
			OFFSET 0.019635 0.377685 -0.194865 
			CHANNELS 3 Zrotation Xrotation Yrotation
			JOINT LeftElbow
			{
				OFFSET 0.000000 -0.243375 0.000000 
				CHANNELS 2 Zrotation Yrotation
				JOINT LeftWrist
				{
					OFFSET 0.000000 -0.264825 0.000000 
					CHANNELS 2 Zrotation Xrotation
					End Site
					{
						OFFSET 0.006600 -0.176220 -0.000990 
					}
				}
			}
		}
	}
	JOINT RightHip
	{
		OFFSET 0.052140 -0.069960 0.075570 
		CHANNELS 3 Zrotation Xrotation Yrotation
		JOINT RightKnee
		{
			OFFSET 0.000000 -0.402270 0.000000 
			CHANNELS 1 Zrotation
			JOINT RightAnkle
			{
				OFFSET 0.000000 -0.404085 0.000000 
				CHANNELS 3 Zrotation Xrotation Yrotation
				End Site
				{
					OFFSET 0.204105 -0.089430 0.008415 
				}
			}
		}
	}
	JOINT LeftHip
	{
		OFFSET 0.052140 -0.069960 -0.075570 
		CHANNELS 3 Zrotation Xrotation Yrotation
		JOINT LeftKnee
		{
			OFFSET 0.000000 -0.402270 0.000000 
			CHANNELS 1 Zrotation
			JOINT LeftAnkle
			{
				OFFSET 0.000000 -0.404085 0.000000 
				CHANNELS 3 Zrotation Xrotation Yrotation
				End Site
				{
					OFFSET 0.204105 -0.089430 -0.008415 
				}
			}
		}
	}
}
MOTION
Frames: 20
Frame Time: 0.02
1e-05 4e-05 -0.0001 -179.83656 -33.43485 -3.5432 42.48885 2.80161 -3.60434 -11.07225 -2.32899 -0.36909 87.48275 -99.41628 64.16951 5.77955 102.50964 9.6938 2.22946 35.60768 109.64084 -64.17627 9.7155 -86.79626 6.14731 1.71695 37.92677 -2.6743 -4.60853 -22.34512 -6.89965 -3.50653 -2.45815 41.45643 8.49791 -0.91999 -27.82408 -6.67708 3.57745 2.51532
5e-05 4e-05 -5e-05 -179.81112 -33.38615 -3.5349 42.42825 2.80507 -3.60679 -11.07325 -2.32853 -0.36933 87.55572 -99.37395 64.1695 5.76124 102.52647 9.6744 2.22456 35.68868 109.59126 -64.17521 9.71789 -86.79199 6.14374 1.70122 37.87233 -2.66429 -4.51811 -22.34027 -6.90271 -3.51507 -2.4656 41.40746 8.51508 -0.81072 -27.81891 -6.67553 3.57237 2.51063
0.0001 3e-05 0 -179.78574 -33.33761 -3.52661 42.36784 2.80851 -3.60923 -11.07425 -2.32806 -0.36956 87.62852 -99.33175 64.1695 5.74298 102.54329 9.65505 2.21966 35.76945 109.54182 -64.17416 9.7203 -86.78772 6.14016 1.68553 37.81808 -2.65432 -4.42807 -22.33545 -6.90577 -3.52359 -2.47303 41.35866 8.53227 -0.70148 -27.81375 -6.67398 3.56727 2.50592
0.00014 3e-05 5e-05 -179.76037 -33.28907 -3.51833 42.30743 2.81196 -3.61166 -11.07525 -2.32761 -0.36979 87.70126 -99.28955 64.16949 5.72473 102.56008 9.6357 2.21477 35.8502 109.4924 -64.1731 9.72269 -86.78346 6.1366 1.66985 37.76381 -2.64434 -4.33795 -22.33063 -6.90882 -3.53211 -2.48046 41.30984 8.5494 -0.59249 -27.8086 -6.67244 3.56219 2.50123
0.00019 2e-05 0.0001 -179.73497 -33.24036 -3.51004 42.24684 2.81543 -3.61411 -11.07624 -2.32715 -0.37002 87.77416 -99.24723 64.16949 5.70641 102.57687 9.61631 2.20987 35.9312 109.44286 -64.17204 9.72506 -86.77919 6.13307 1.65413 37.70936 -2.63429 -4.2474 -22.32577 -6.91189 -3.54065 -2.48791 41.26085 8.56648 -0.4836 -27.80343 -6.67092 3.55717 2.49657
0.00023 2e-05 0.00015 -179.70961 -33.19218 -3.50177 42.18679 2.81881 -3.61653 -11.07726 -2.32667 -0.37025 87.84677 -99.20529 64.16949 5.68829 102.59371 9.59702 2.205 36.01146 109.39363 -64.171 9.72753 -86.77493 6.12937 1.63852 37.6555 -2.6245 -4.15844 -22.32103 -6.91492 -3.5491 -2.49528 41.21244 8.58389 -0.37364 -27.79831 -6.66932 3.55189 2.49175
0.00027 2e-05 0.0002 -179.68419 -33.14298 -3.49346 42.12572 2.82237 -3.61899 -11.07822 -2.32625 -0.37049 87.91983 -99.16263 64.16948 5.66979 102.61045 9.57756 2.20006 36.09311 109.34383 -64.16992 9.72979 -86.77066 6.12603 1.62271 37.60051 -2.6142 -4.06638 -22.31606 -6.91802 -3.55773 -2.50281 41.16292 8.60063 -0.26588 -27.7931 -6.66786 3.54712 2.48724
0.00032 1e-05 0.00025 -179.65884 -33.09473 -3.48519 42.06559 2.82577 -3.62141 -11.07923 -2.32577 -0.37072 87.99257 -99.12063 64.16948 5.65163 102.62726 9.55824 2.1952 36.17348 109.29455 -64.16887 9.73227 -86.7664 6.12231 1.60708 37.54657 -2.60437 -3.97721 -22.3113 -6.92105 -3.56619 -2.51019 41.11443 8.61795 -0.15626 -27.78797 -6.66628 3.5419 2.48247
0.00036 1e-05 0.0003 -179.6335 -33.04761 -3.47696 42.00661 2.82894 -3.62383 -11.08033 -2.32522 -0.37095 88.06456 -99.07944 64.16947 5.63394 102.64427 9.53917 2.1904 36.25231 109.24591 -64.16787 9.73493 -86.76214 6.11831 1.59166 37.49389 -2.59514 -3.89144 -22.3068 -6.92401 -3.57449 -2.5174 41.06716 8.63616 -0.04359 -27.78293 -6.66455 3.53602 2.4773
0.0004 0 0.00036 -179.6079 -32.9939 -3.46844 41.94102 2.83334 -3.6264 -11.08099 -2.32506 -0.37119 88.13982 -99.03358 64.16947 5.61369 102.66049 9.51889 2.18512 36.3401 109.19358 -64.16662 9.73627 -86.75783 6.11649 1.57501 37.43387 -2.58252 -3.7857 -22.30083 -6.92744 -3.58386 -2.52564 41.01277 8.64981 0.05388 -27.77735 -6.66365 3.53364 2.47418
0.00045 0 0.0004 -179.58297 -32.95412 -3.4606 41.88934 2.83518 -3.62854 -11.08254 -2.3241 -0.37141 88.20881 -98.99759 64.16946 5.59876 102.67815 9.50103 2.18092 36.40891 109.14905 -64.16589 9.7406 -86.75367 6.1097 1.56097 37.38938 -2.57703 -3.72232 -22.29792 -6.92984 -3.59088 -2.53167 40.97344 8.67272 0.18186 -27.77295 -6.66103 3.52405 2.46689
0.0005 -0 0.00037 -179.55872 -32.95281 -3.45411 41.87649 2.82979 -3.63041 -11.0868 -2.32074 -0.37159 88.25486 -98.98892 64.16946 5.59943 102.70171 9.49091 2.17902 36.42595 109.12604 -64.16663 9.75144 -86.7497 6.09211 1.55404 37.38774 -2.59132 -3.77471 -22.3039 -6.92954 -3.59196 -2.53194 40.97542 8.7241 0.40742 -27.7714 -6.65328 3.49306 2.44696
0.00055 -0 0.00032 -179.53535 -32.96544 -3.44839 41.87749 2.8219 -3.63168 -11.09192 -2.31659 -0.37176 88.29526 -98.99015 64.16946 5.60531 102.7264 9.48307 2.17829 36.42404 109.11083 -64.16787 9.76561 -86.74594 6.06899 1.54973 37.40165 -2.61276 -3.86978 -22.31286 -6.92818 -3.59058 -2.52994 40.99251 8.78419 0.66116 -27.77109 -6.64387 3.45513 2.42308
0.0006 -1e-05 0.00029 -179.51234 -32.97152 -3.44264 41.8717 2.8153 -3.63259 -11.09645 -2.31293 -0.37194 88.34254 -98.9867 64.16947 5.60806 102.74928 9.47341 2.17748 36.43043 109.09202 -64.16884 9.7793 -86.74223 6.04656 1.54429 37.40829 -2.63074 -3.94557 -22.32013 -6.9272 -3.59 -2.52877 41.0027 8.83829 0.8928 -27.77047 -6.63548 3.42142 2.40182
0.00066 -1e-05 0.00025 -179.48616 -32.97852 -3.43556 41.86801 2.80799 -3.63612 -11.10175 -2.30874 -0.37212 88.37334 -98.98396 64.16947 5.61381 102.77754 9.46683 2.17488 36.43749 109.07354 -64.17 9.78851 -86.7379 6.03185 1.53868 37.41584 -2.64946 -4.02076 -22.32881 -6.9266 -3.59075 -2.52842 41.01308 8.90101 1.16324 -27.76883 -6.62597 3.38318 2.37711
0.00071 -1e-05 0.00021 -179.46676 -32.98693 -3.4314 41.86325 2.80162 -3.63409 -11.10571 -2.30545 -0.37229 88.43494 -98.98219 64.16947 5.61486 102.795 9.45466 2.17611 36.43939 109.05611 -64.17088 9.80803 -86.73493 5.99972 1.53397 37.42517 -2.66854 -4.10757 -22.33526 -6.92499 -3.58815 -2.52584 41.0266 8.94784 1.36017 -27.76956 -6.6184 3.35274 2.3586
0.00074 -2e-05 0.00018 -179.4659 -32.99557 -3.43558 41.85191 2.79805 -3.61642 -11.10536 -2.30483 -0.37244 88.60233 -98.97978 64.16946 5.59878 102.78118 9.42417 2.1891 36.42534 109.04058 -64.17082 9.85354 -86.73557 5.92067 1.53163 37.43576 -2.68503 -4.21315 -22.33493 -6.92069 -3.57686 -2.51775 41.04548 8.94865 1.34158 -27.77689 -6.61665 3.34571 2.35851
0.00077 -3e-05 0.00015 -179.47183 -33.0052 -3.44262 41.83909 2.79557 -3.59323 -11.10369 -2.3051 -0.37259 88.79757 -98.97818 64.16945 5.57831 102.75667 9.38837 2.2056 36.40781 109.02568 -64.17042 9.90963 -86.73758 5.82414 1.53 37.44762 -2.70191 -4.32917 -22.33222 -6.91544 -3.5623 -2.5075 41.06695 8.93315 1.24898 -27.7865 -6.61691 3.34677 2.36474
0.0008 -4e-05 0.00013 -179.47459 -33.01447 -3.44806 41.82707 2.79287 -3.57284 -11.10289 -2.30497 -0.37274 88.96704 -98.97677 64.16945 5.56173 102.73786 9.35663 2.21954 36.39618 109.0098 -64.17025 9.96189 -86.73906 5.7359 1.52767 37.45874 -2.71988 -4.44266 -22.33051 -6.91071 -3.54923 -2.49817 41.08693 8.92517 1.19408 -27.79482 -6.61622 3.34402 2.36786
0.00083 -5e-05 8e-05 -179.47765 -33.02375 -3.45477 41.81488 2.789 -3.55121 -11.10102 -2.30488 -0.3729 89.19061 -98.97331 64.16944 5.53734 102.71561 9.31827 2.23767 36.36615 108.99694 -64.16994 10.00999 -86.74025 5.64665 1.527 37.47092 -2.73302 -4.54952 -22.32924 -6.90558 -3.536 -2.48895 41.10859 8.91714 1.1234 -27.80426 -6.61563 3.34154 2.37182
